<svg width="36" height="36" viewBox="0 0 36 36" fill="none" xmlns="http://www.w3.org/2000/svg">
<g clip-path="url(#clip0_5668_1099)">
<path fill-rule="evenodd" clip-rule="evenodd" d="M29.6102 4H6.394C5.75907 4 5.15014 4.25222 4.70119 4.70119C4.25222 5.15014 4 5.75907 4 6.394V29.606C4 30.241 4.25222 30.8498 4.70119 31.2988C5.15014 31.7478 5.75907 32 6.394 32H29.6102C30.2444 31.9989 30.8522 31.7462 31.3003 31.2973C31.7483 30.8484 32 30.2402 32 29.606V6.394C32 5.7598 31.7483 5.15151 31.3003 4.70267C30.8522 4.25383 30.2444 4.00111 29.6102 4ZM30.1422 22.0082C30.1407 24.1637 29.2834 26.2303 27.7585 27.7537C26.2338 29.2772 24.1665 30.1327 22.011 30.1324H14.0072C11.8521 30.1324 9.78534 29.2765 8.26129 27.7528C6.73724 26.2291 5.88076 24.1626 5.8802 22.0076V13.9876C5.8801 12.9204 6.09026 11.8636 6.49867 10.8776C6.90708 9.89166 7.50573 8.9958 8.26043 8.24124C9.01512 7.48667 9.91108 6.88817 10.8971 6.47994C11.8832 6.0717 12.94 5.86172 14.0072 5.862H22.0284C24.1839 5.86237 26.251 6.71842 27.7754 8.24204C29.3 9.76567 30.1573 11.8322 30.159 13.9876L30.1408 22.0076L30.1422 22.0082Z" fill="white"/>
</g>
<defs>
<clipPath id="clip0_5668_1099">
<rect width="28" height="28" fill="white" transform="translate(4 4)"/>
</clipPath>
</defs>
</svg>
